<svg xmlns="http://www.w3.org/2000/svg" viewBox="0 0 500 310" role="img" aria-label="Hoehenkurve h_curved gleich n hoch p fuer Exponenten 0.5, 1.0 und 2.0">
  <rect width="500" height="310" fill="#f8fafc" rx="8"/>
  <line x1="70" y1="250" x2="430" y2="250" stroke="#57606a" stroke-width="1.5"/>
  <line x1="70" y1="50" x2="70" y2="250" stroke="#57606a" stroke-width="1.5"/>
  <text x="250" y="295" text-anchor="middle" font-family="Segoe UI, sans-serif" font-size="13" fill="#24292f">normalisierter Noise-Wert n</text>
  <text x="22" y="155" text-anchor="middle" font-family="Segoe UI, sans-serif" font-size="13" fill="#24292f" transform="rotate(-90 22 155)">h_curved = n^p</text>
  <text x="62" y="254" text-anchor="end" font-family="Segoe UI, sans-serif" font-size="11" fill="#57606a">0</text>
  <text x="434" y="254" text-anchor="start" font-family="Segoe UI, sans-serif" font-size="11" fill="#57606a">1</text>
  <text x="62" y="54" text-anchor="end" font-family="Segoe UI, sans-serif" font-size="11" fill="#57606a">1</text>
  <path d="M 70.0,250.0 L 77.2,221.7 L 84.4,210.0 L 91.6,201.0 L 98.8,193.4 L 106.0,186.8 L 113.2,180.7 L 120.4,175.2 L 127.6,170.0 L 134.8,165.1 L 142.0,160.6 L 149.2,156.2 L 156.4,152.0 L 163.6,148.0 L 170.8,144.2 L 178.0,140.5 L 185.2,136.9 L 192.4,133.4 L 199.6,130.0 L 206.8,126.7 L 214.0,123.5 L 221.2,120.4 L 228.4,117.3 L 235.6,114.4 L 242.8,111.4 L 250.0,108.6 L 257.2,105.8 L 264.4,103.0 L 271.6,100.3 L 278.8,97.7 L 286.0,95.1 L 293.2,92.5 L 300.4,90.0 L 307.6,87.5 L 314.8,85.1 L 322.0,82.7 L 329.2,80.3 L 336.4,78.0 L 343.6,75.6 L 350.8,73.4 L 358.0,71.1 L 365.2,68.9 L 372.4,66.7 L 379.6,64.5 L 386.8,62.4 L 394.0,60.3 L 401.2,58.2 L 408.4,56.1 L 415.6,54.0 L 422.8,52.0 L 430.0,50.0" fill="none" stroke="#cf222e" stroke-width="2.5" stroke-linecap="round"/>
  <path d="M 70.0,250.0 L 77.2,246.0 L 84.4,242.0 L 91.6,238.0 L 98.8,234.0 L 106.0,230.0 L 113.2,226.0 L 120.4,222.0 L 127.6,218.0 L 134.8,214.0 L 142.0,210.0 L 149.2,206.0 L 156.4,202.0 L 163.6,198.0 L 170.8,194.0 L 178.0,190.0 L 185.2,186.0 L 192.4,182.0 L 199.6,178.0 L 206.8,174.0 L 214.0,170.0 L 221.2,166.0 L 228.4,162.0 L 235.6,158.0 L 242.8,154.0 L 250.0,150.0 L 257.2,146.0 L 264.4,142.0 L 271.6,138.0 L 278.8,134.0 L 286.0,130.0 L 293.2,126.0 L 300.4,122.0 L 307.6,118.0 L 314.8,114.0 L 322.0,110.0 L 329.2,106.0 L 336.4,102.0 L 343.6,98.0 L 350.8,94.0 L 358.0,90.0 L 365.2,86.0 L 372.4,82.0 L 379.6,78.0 L 386.8,74.0 L 394.0,70.0 L 401.2,66.0 L 408.4,62.0 L 415.6,58.0 L 422.8,54.0 L 430.0,50.0" fill="none" stroke="#0969da" stroke-width="2.5" stroke-linecap="round"/>
  <path d="M 70.0,250.0 L 77.2,249.9 L 84.4,249.7 L 91.6,249.3 L 98.8,248.7 L 106.0,248.0 L 113.2,247.1 L 120.4,246.1 L 127.6,244.9 L 134.8,243.5 L 142.0,242.0 L 149.2,240.3 L 156.4,238.5 L 163.6,236.5 L 170.8,234.3 L 178.0,232.0 L 185.2,229.5 L 192.4,226.9 L 199.6,224.1 L 206.8,221.1 L 214.0,218.0 L 221.2,214.7 L 228.4,211.3 L 235.6,207.7 L 242.8,203.9 L 250.0,200.0 L 257.2,195.9 L 264.4,191.7 L 271.6,187.3 L 278.8,182.7 L 286.0,178.0 L 293.2,173.1 L 300.4,168.1 L 307.6,162.9 L 314.8,157.5 L 322.0,152.0 L 329.2,146.3 L 336.4,140.5 L 343.6,134.5 L 350.8,128.3 L 358.0,122.0 L 365.2,115.5 L 372.4,108.9 L 379.6,102.1 L 386.8,95.1 L 394.0,88.0 L 401.2,80.7 L 408.4,73.3 L 415.6,65.7 L 422.8,57.9 L 430.0,50.0" fill="none" stroke="#2da44e" stroke-width="2.5" stroke-linecap="round"/>
  <rect x="300" y="54" width="182" height="78" fill="#ffffff" stroke="#d0d7de" rx="6"/>
  <line x1="312" y1="76" x2="340" y2="76" stroke="#cf222e" stroke-width="2.5"/>
  <text x="348" y="80" font-family="Segoe UI, sans-serif" font-size="12" fill="#24292f">p = 0.5 (mehr Ebenen)</text>
  <line x1="312" y1="98" x2="340" y2="98" stroke="#0969da" stroke-width="2.5"/>
  <text x="348" y="102" font-family="Segoe UI, sans-serif" font-size="12" fill="#24292f">p = 1.0 (linear)</text>
  <line x1="312" y1="120" x2="340" y2="120" stroke="#2da44e" stroke-width="2.5"/>
  <text x="348" y="124" font-family="Segoe UI, sans-serif" font-size="12" fill="#24292f">p = 2.0 (steilere Hänge)</text>
</svg>
